<svg xmlns="http://www.w3.org/2000/svg" xmlns:xlink="http://www.w3.org/1999/xlink" width="9" height="14"><defs><path id="a" d="M7.5 11.73c-.39 0-.62-.16-.94-.49L1.18 5.49a.92.92 0 0 1 0-1.23.78.78 0 0 1 1.16 0l5.16 5.5 5.16-5.5a.78.78 0 0 1 1.16 0c.32.34.32.9 0 1.23l-5.37 5.73c-.31.34-.56.5-.95.5Z"/></defs><g fill="none" fill-rule="evenodd"><path fill="#none" d="M-1283-608H83v829h-1366z"/><g transform="matrix(-1 0 0 1 12 -1)"><path d="M0 0h15v16H0z"/><mask id="b" fill="#fff"><use xlink:href="#a"/></mask><g fill="#333" mask="url(#b)"><path d="M-76.88-57h169V73h-169z"/></g></g></g></svg>